<?xml version="1.0" standalone="no"?><!DOCTYPE svg PUBLIC "-//W3C//DTD SVG 1.1//EN"
        "http://www.w3.org/Graphics/SVG/1.1/DTD/svg11.dtd">
<svg t="1680767958365" class="icon" viewBox="0 0 1024 1024" version="1.1" xmlns="http://www.w3.org/2000/svg" p-id="2022"
     width="200" height="200">
    <path d="M409.428572 504.780488C360.252721 504.780488 320 463.609741 320 412.390244 320 361.342436 360.358093 320 409.428572 320 458.503021 320 498.857143 361.339891 498.857143 412.390244 498.857143 463.612284 458.60839 504.780488 409.428572 504.780488ZM409.428572 256C324.662098 256 256 326.336783 256 412.390244 256 498.636977 324.579452 568.780488 409.428572 568.780488 494.2822 568.780488 562.857143 498.639005 562.857143 412.390244 562.857143 326.33475 494.199557 256 409.428572 256ZM699.680381 861.129366 699.680381 829.129366 699.680381 746.202536C699.680381 642.482227 537.468289 576 397.843428 576 258.2168 576 96 642.482242 96 746.202536L96 829.129366 96 861.129366 128 861.129366 667.680381 861.129366 699.680381 861.129366ZM128 797.129366 160 829.129366 160 746.202536C160 693.436326 290.38474 640 397.843428 640 505.30065 640 635.680381 693.435812 635.680381 746.202536L635.680381 829.129366 667.680381 797.129366 128 797.129366ZM704 512 928 512 928 576 704 576 704 512ZM768 640 928 640 928 704 768 704 768 640ZM800 768 928 768 928 832 800 832 800 768Z"
          p-id="2023"></path>
</svg>