<?xml version="1.0" standalone="no"?><!DOCTYPE svg PUBLIC "-//W3C//DTD SVG 1.1//EN"
        "http://www.w3.org/Graphics/SVG/1.1/DTD/svg11.dtd">
<svg t="1680767895948" class="icon" viewBox="0 0 1024 1024" version="1.1" xmlns="http://www.w3.org/2000/svg" p-id="1719"
     width="200" height="200">
    <path d="M512 85.333333c235.648 0 426.666667 191.018667 426.666667 426.666667s-191.018667 426.666667-426.666667 426.666667S85.333333 747.648 85.333333 512 276.352 85.333333 512 85.333333z m0 61.781334a364.885333 364.885333 0 1 0 0 729.770666 364.885333 364.885333 0 0 0 0-729.770666z m128.341333 197.845333a30.890667 30.890667 0 0 1 38.698667 38.698667l-65.578667 209.578666a30.890667 30.890667 0 0 1-20.224 20.224l-209.578666 65.578667a30.890667 30.890667 0 0 1-38.698667-38.698667l65.578667-209.578666a30.890667 30.890667 0 0 1 20.224-20.224z m-37.888 76.544l-137.813333 43.136-43.136 137.813333 137.813333-43.136 43.136-137.813333z"
          p-id="1720"></path>
</svg>