<?xml version="1.0" standalone="no"?><!DOCTYPE svg PUBLIC "-//W3C//DTD SVG 1.1//EN" "http://www.w3.org/Graphics/SVG/1.1/DTD/svg11.dtd"><svg t="1684828356902" class="icon" viewBox="0 0 1024 1024" version="1.1" xmlns="http://www.w3.org/2000/svg" p-id="2633" xmlns:xlink="http://www.w3.org/1999/xlink" width="200" height="200"><path d="M846.6432 460.8h-211.0976A277.1456 277.1456 0 0 0 358.4 737.9456v31.0272H276.1216c-39.424 0-71.3216-31.8976-71.3216-71.2704V327.3216C204.8 287.8976 236.7488 256 276.1216 256h160.3072c27.392 0 52.3264 15.6672 64.256 40.3456l13.6704 28.3648c3.9424 8.192 12.288 13.4144 21.4016 13.4144h239.5648c39.424 0 71.3216 31.9488 71.3216 71.3216V460.8z m0 47.5648v189.3376c0 39.3728-31.9488 71.2704-71.3216 71.2704H405.9648v-31.0272a229.632 229.632 0 0 1 229.5808-229.5808h211.0976z" fill="#232323" p-id="2634"></path></svg>