<?xml version="1.0" standalone="no"?><!DOCTYPE svg PUBLIC "-//W3C//DTD SVG 1.1//EN"
        "http://www.w3.org/Graphics/SVG/1.1/DTD/svg11.dtd">
<svg t="1686366756780" class="icon" viewBox="0 0 1024 1024" version="1.1" xmlns="http://www.w3.org/2000/svg"
     p-id="2127" width="200" height="200">
    <path d="M62.5 255.817c0-17.652 14.296-31.962 31.911-31.962h829.11c17.624 0 31.911 14.346 31.911 31.962 0 17.652-14.296 31.962-31.911 31.962H94.41c-17.624 0-31.912-14.345-31.912-31.962z m0 255.695c0-17.652 14.296-31.962 31.911-31.962h829.11c17.624 0 31.911 14.346 31.911 31.962 0 17.652-14.296 31.962-31.911 31.962H94.41c-17.624 0-31.912-14.346-31.912-31.962z m0 255.694c0-17.652 14.296-31.962 31.911-31.962h829.11c17.624 0 31.911 14.346 31.911 31.962 0 17.652-14.296 31.962-31.911 31.962H94.41c-17.624 0-31.912-14.345-31.912-31.962z"
          fill="#4d4d4d" p-id="2128"></path>
</svg>