<?xml version="1.0" standalone="no"?><!DOCTYPE svg PUBLIC "-//W3C//DTD SVG 1.1//EN" "http://www.w3.org/Graphics/SVG/1.1/DTD/svg11.dtd"><svg t="1681181323189" class="icon" viewBox="0 0 1024 1024" version="1.1" xmlns="http://www.w3.org/2000/svg" p-id="1003" xmlns:xlink="http://www.w3.org/1999/xlink" width="200" height="200"><path d="M893.532041 881.355209l-0.284479-392.855436c-1.805112-41.266869-35.472909-74.250074-77.136821-74.419943l-50.869574 0.029676 0-35.523051 0.191358 0 0.170892-81.20344c0-2.183735-0.285502-4.273327-0.647753-6.363941-2.829442-123.525338-101.722776-223.293599-224.985124-227.214908l0-1.137916C414.498874 64.128553 313.084113 164.882258 310.218856 289.995767c-0.361227 2.090615-0.64673 4.180206-0.64673 6.363941l0.170892 81.20344 0.191358 0 0 36.477796-0.094144 0 0 0.323365-42.272779 0.019443c-2.596128 0.115634-5.158487 0.358157-7.682983 0.720408l-0.819668 0c-41.663912 0.169869-75.331709 33.152051-77.136821 74.419943l-0.284479 392.855436c0.209778 42.786479 34.921347 77.441766 77.763085 77.441766l38.911218 0 0 0.037862 466.923362 0.265036 0-0.302899 38.910195 0c4.331655 0 8.575306-0.370437 12.71458-1.050935C859.199095 958.181969 893.32431 923.774321 893.532041 881.355209zM387.811048 296.094672c0.514723-82.71998 65.588811-150.08832 147.393955-154.210197l0 0.847298c84.028788 1.687432 151.633512 70.065775 152.158469 154.386206l0.454348 0c0 0.095167-0.036839 0.170892-0.036839 0.265036l-0.26299 116.770494-299.860439 0.172939-0.265036-117.966739c0-0.094144-0.037862-0.169869-0.037862-0.265036L387.811048 296.094672z" p-id="1004"></path></svg>