<?xml version="1.0" standalone="no"?><!DOCTYPE svg PUBLIC "-//W3C//DTD SVG 1.1//EN" "http://www.w3.org/Graphics/SVG/1.1/DTD/svg11.dtd"><svg t="1684828363439" class="icon" viewBox="0 0 1024 1024" version="1.1" xmlns="http://www.w3.org/2000/svg" p-id="2925" xmlns:xlink="http://www.w3.org/1999/xlink" width="200" height="200"><path d="M896 253.312A511.36 511.36 0 0 1 605.610667 418.133333a106.666667 106.666667 0 0 0-187.221334 0A511.36 511.36 0 0 1 128 253.312V128a42.666667 42.666667 0 0 1 42.666667-42.666667h682.666666a42.666667 42.666667 0 0 1 42.666667 42.666667v125.312z m0 118.912V896a42.666667 42.666667 0 0 1-42.666667 42.666667H170.666667a42.666667 42.666667 0 0 1-42.666667-42.666667V372.224A594.944 594.944 0 0 0 410.88 503.466667a106.709333 106.709333 0 0 0 202.24 0A594.944 594.944 0 0 0 896 372.224z" fill="#000000" p-id="2926"></path></svg>