<svg width="20.000000" height="20.000000" viewBox="0 0 20 20" fill="none" xmlns="http://www.w3.org/2000/svg"
>
    <desc>
        Created with Pixso.
    </desc>
    <g clip-path="url(#clip327_5223)">
        <path id="Icon"
              d="M4 5C2.89543 5 2 5.89543 2 7L2 15C2 16.1046 2.89543 17 4 17L16 17C17.1046 17 18 16.1046 18 15L18 7C18 5.89543 17.1046 5 16 5L14.4142 5C14.149 5 13.8946 4.89465 13.7071 4.70711L12.5858 3.58578C12.2107 3.21072 11.702 3 11.1716 3L8.82843 3C8.298 3 7.78928 3.21072 7.41422 3.58578L6.29289 4.70711C6.10535 4.89465 5.85101 5 5.58578 5L4 5ZM10 14C11.6569 14 13 12.6569 13 11C13 9.34315 11.6569 8 10 8C8.34315 8 7 9.34315 7 11C7 12.6569 8.34315 14 10 14Z"
              fill-rule="evenodd" fill="#57B77D"/>
    </g>
    <defs>
        <clipPath id="clip327_5223">
            <rect id="Icon/Solid/camera" width="20.000000" height="20.000000" fill="white"/>
        </clipPath>
    </defs>
</svg>
