<svg width="40.000000" height="40.000000" viewBox="0 0 40 40" fill="none" xmlns="http://www.w3.org/2000/svg" xmlns:xlink="http://www.w3.org/1999/xlink">
	<desc>
			Created with Pixso.
	</desc>
	<circle id="Ellipse 47" cx="20.000000" cy="20.000000" r="20.000000" fill="#57B77D"/>
	<g clip-path="url(#clip337_5438)">
		<path id="Vector" d="M12.5 16.6665C12.5 17.125 12.875 17.5 13.3333 17.5C13.7917 17.5 14.1667 17.125 14.1667 16.6665L14.1667 15L15.8333 15C16.2917 15 16.6667 14.625 16.6667 14.1665C16.6667 13.7083 16.2917 13.3333 15.8333 13.3333L14.1667 13.3333L14.1667 11.6665C14.1667 11.2083 13.7917 10.8333 13.3333 10.8333C12.875 10.8333 12.5 11.2083 12.5 11.6665L12.5 13.3333L10.8333 13.3333C10.375 13.3333 10 13.7083 10 14.1665C10 14.625 10.375 15 10.8333 15L12.5 15L12.5 16.6665Z" fill-rule="evenodd" fill="#FFFFFF"/>
		<path id="Vector" d="M23.3335 21.6667C23.3335 23.0474 22.2141 24.1667 20.8335 24.1667C19.4529 24.1667 18.3335 23.0474 18.3335 21.6667C18.3335 20.2861 19.4529 19.1667 20.8335 19.1667C22.2141 19.1667 23.3335 20.2861 23.3335 21.6667Z" fill-rule="evenodd" fill="#FFFFFF"/>
		<path id="Vector" d="M27.5 15L24.8584 15L23.825 13.875C23.6697 13.7043 23.4805 13.5681 23.2695 13.4749C23.0586 13.3816 22.8306 13.3335 22.6001 13.3333L17.2666 13.3333C17.4084 13.5833 17.5 13.8582 17.5 14.1665C17.5 15.0833 16.75 15.8333 15.8333 15.8333L15 15.8333L15 16.6665C15 17.5833 14.25 18.3333 13.3333 18.3333C13.0249 18.3333 12.75 18.2417 12.5 18.0999L12.5 26.6665C12.5 27.5833 13.25 28.3333 14.1667 28.3333L27.5 28.3333C28.4167 28.3333 29.1667 27.5833 29.1667 26.6665L29.1667 16.6665C29.1667 15.75 28.4167 15 27.5 15ZM20.8333 25.8333C18.5334 25.8333 16.6667 23.9666 16.6667 21.6665C16.6667 19.3667 18.5334 17.5 20.8333 17.5C23.1333 17.5 25 19.3667 25 21.6665C25 23.9666 23.1333 25.8333 20.8333 25.8333Z" fill-rule="evenodd" fill="#FFFFFF"/>
	</g>
	<defs>
		<clipPath id="clip337_5438">
			<rect id="Icon/Solid/add-a-photo" width="20.000000" height="20.000000" transform="translate(10.000000 10.000000)" fill="white"/>
		</clipPath>
	</defs>
</svg>
